<?xml version="1.0" encoding="UTF-8"?> <svg xmlns="http://www.w3.org/2000/svg" xmlns:xlink="http://www.w3.org/1999/xlink" id="shop" version="1.1" viewBox="0 0 1010 1010"><defs><style> .st0 { fill: #fff; } .st1 { fill: #443daf; } .st2 { fill: #434541; } .st3 { fill: #da302d; } .st4 { fill: #66fc41; } .st5 { fill: #23f6ff; } .st6 { fill: #c7b2b0; } </style></defs><g id="shop-shop"><circle id="shop-label" class="st5" cx="505" cy="505" r="505"></circle><g id="shop-shop1" data-name="shop-shop"><g><path class="st4" d="M722.9,539c-20.6,0-38-17.4-39.6-39.7l-.8-10.8h80.7l-.8,10.8c-1.6,22.3-19,39.7-39.6,39.7h0Z"></path><rect class="st4" x="680.3" y="357.8" width="82.2" height="130.6"></rect><rect class="st4" x="592.9" y="357.8" width="87.4" height="130.6"></rect><path class="st4" d="M636.1,539c-20.6,0-38-17.4-39.6-39.7l-.8-10.8h80.8l-.8,10.8c-1.6,22.3-19,39.7-39.6,39.7h0Z"></path><rect class="st4" x="505" y="357.8" width="87.9" height="130.6"></rect><path class="st4" d="M549.3,539c-20.6,0-38-17.5-39.6-39.7l-.8-10.8h80.7l-.8,10.8c-1.6,22.3-19,39.7-39.6,39.7h0Z"></path><rect class="st4" x="418" y="357.8" width="87" height="130.6"></rect><path class="st4" d="M462.5,539c-20.6,0-38-17.4-39.6-39.7l-.8-10.8h80.8l-.8,10.8c-1.6,22.3-19,39.7-39.6,39.7h0Z"></path><rect class="st4" x="330.5" y="357.8" width="87.4" height="130.6"></rect><path class="st4" d="M375.8,539c-20.6,0-38-17.5-39.6-39.7l-.8-10.8h80.8l-.8,10.8c-1.6,22.3-19,39.7-39.6,39.7h0Z"></path><rect class="st0" x="363.6" y="222.2" width="282.8" height="94.7"></rect><rect class="st4" x="247.5" y="357.8" width="83.1" height="130.6"></rect><path class="st4" d="M289,539c-21.1,0-40.1-18-41.5-39.4v-11.2s81.9,0,81.9,0l-.8,10.8c-1.6,22.3-19,39.7-39.6,39.7h0Z"></path><path class="st0" d="M555.5,756.5v-172.6h-101v172.6h-191.9v-224.7l13.5,4.8c4.6,1.6,8.9,2.4,12.9,2.4,14.1,0,27.4-8.3,34.5-21.7l8.9-16.8,8.9,16.8c7.1,13.4,20.3,21.7,34.5,21.7s27.3-8.3,34.5-21.7l8.9-16.8,8.9,16.8c7.1,13.4,20.3,21.7,34.5,21.7s27.3-8.3,34.4-21.7l8.9-16.8,8.9,16.8c7.1,13.4,20.3,21.7,34.5,21.7s27.3-8.3,34.5-21.7l8.9-16.8,8.9,16.8c7.1,13.4,20.3,21.8,34.5,21.8s27.4-8.3,34.5-21.7l8.9-16.8,8.9,16.8c7.1,13.4,20.3,21.7,34.5,21.7s7-.6,11.3-2l13.2-4.3v223.9h-191.9Z"></path><rect class="st5" x="454.5" y="583.9" width="101" height="172.6"></rect><rect class="st1" x="242.4" y="756.5" width="525.2" height="31.3"></rect><rect class="st3" x="601" y="585.7" width="111.1" height="121.4"></rect><rect class="st3" x="298" y="585.1" width="111.1" height="122.5"></rect></g><g><polygon class="st2" points="272.7 752.5 252.5 752.5 252.5 528.6 272.7 528.6 272.7 752.5"></polygon><polygon class="st2" points="757.5 752.5 737.3 752.5 737.3 528.6 757.5 528.6 757.5 752.5"></polygon><g><polyline class="st6" points="454.5 764.8 454.5 583.9 555.5 583.9 555.5 764.8"></polyline><polygon class="st2" points="565.6 764.8 545.4 764.8 545.4 594 464.6 594 464.6 764.8 444.4 764.8 444.4 573.8 565.6 573.8 565.6 764.8"></polygon></g><polygon class="st2" points="535.3 679.7 515.1 679.7 515.1 660.5 535.3 660.5 535.3 679.7"></polygon><g><polygon class="st2" points="772.7 488.4 752.5 488.4 752.5 367.9 257.5 367.9 257.5 488.4 237.4 488.4 237.4 347.7 772.7 347.7 772.7 488.4"></polygon><path class="st2" d="M722.9,549.1c-18.5,0-34.8-10.9-43.4-27.1-8.6,16.2-24.9,27.1-43.4,27.1s-34.8-10.9-43.4-27.1c-8.6,16.2-24.9,27.1-43.4,27.1s-34.8-10.9-43.4-27.1c-8.6,16.2-24.9,27.1-43.4,27.1s-34.8-10.9-43.4-27.1c-8.6,16.2-24.9,27.1-43.4,27.1s-34.8-10.9-43.4-27.1c-8.6,16.2-24.9,27.1-43.4,27.1-26.7,0-49.8-22.2-51.6-49.5v-21.2s535.3,0,535.3,0v20.6c-1.9,28.4-23.7,50.1-49.8,50.1h0ZM693.3,498.5c1.2,17,14.2,30.4,29.6,30.4s28.3-13.3,29.5-30.4h-59ZM606.5,498.5c1.2,17.1,14.2,30.4,29.5,30.4s28.3-13.3,29.6-30.4h-59.1ZM519.8,498.5c1.2,17,14.1,30.4,29.5,30.4s28.3-13.3,29.5-30.4h-59ZM433,498.5c1.2,17,14.2,30.4,29.6,30.4s28.3-13.3,29.5-30.4h-59.1ZM346.2,498.5c1.2,17,14.1,30.4,29.5,30.4s28.3-13.3,29.5-30.4h-59.1ZM257.5,498.5v.4c1,15.9,15.4,30,31.4,30s28.3-13.3,29.5-30.4h-61Z"></path><polygon class="st2" points="340.6 498.5 320.4 498.5 320.4 357.8 340.6 357.8 340.6 498.5"></polygon><polygon class="st2" points="428.1 498.5 407.9 498.5 407.9 357.8 428.1 357.8 428.1 498.5"></polygon><polygon class="st2" points="603 498.5 582.8 498.5 582.8 357.8 603 357.8 603 498.5"></polygon><polygon class="st2" points="690.4 498.5 670.2 498.5 670.2 357.8 690.4 357.8 690.4 498.5"></polygon><polygon class="st2" points="515.1 498.5 494.9 498.5 494.9 357.8 515.1 357.8 515.1 498.5"></polygon></g><path class="st2" d="M777.7,797.9H232.3v-51.5h545.4v51.5h0ZM252.5,777.7h505v-11.1H252.5v11.1h0Z"></path><path class="st2" d="M722.2,717.2h-131.3v-141.6h131.3v141.6h0ZM611,697h90.9v-101.2h-90.9v101.2h0Z"></path><path class="st2" d="M419.2,717.8h-131.3v-142.7h131.3v142.7h0ZM308,697.6h90.9v-102.3h-90.9v102.3h0Z"></path></g><g><polygon class="st2" points="428.1 362.8 407.9 362.8 407.9 323.2 428.1 323.2 428.1 362.8"></polygon><polygon class="st2" points="603 375.6 582.8 375.6 582.8 323.2 603 323.2 603 375.6"></polygon><path class="st2" d="M646.4,327h-282.8c-5.6,0-10.1-4.5-10.1-10.1v-94.7c0-5.6,4.5-10.1,10.1-10.1h282.8c5.6,0,10.1,4.5,10.1,10.1v94.7c0,5.6-4.5,10.1-10.1,10.1h0ZM373.7,306.8h262.6v-74.5h-262.6v74.5h0Z"></path></g><polygon class="st2" points="612.3 277.8 397.7 277.8 397.7 257.5 612.3 257.5 612.3 277.8"></polygon></g></g></svg> 